<svg width="16" height="219" viewBox="0 0 16 219" fill="none" xmlns="http://www.w3.org/2000/svg">
<path d="M1.06 210.58L2.54 210.58L2.54 216.64L7.24 216.64L7.24 211.72L8.72 211.72L8.72 216.64L15 216.64L15 218.46L1.06 218.46L1.06 210.58ZM2.54 205.562L7.2 205.562L7.2 200.482L8.7 200.482L8.7 205.562L13.5 205.562L13.5 199.882L15 199.882L15 207.382L1.04 207.382L1.04 199.882L2.54 199.882L2.54 205.562ZM11.9 187.888L11.9 193.968L15 195.088L15 197.008L1.14 191.968L1.14 189.868L15 184.848L15 186.768L11.9 187.888ZM10.42 188.408L3.38 190.928L10.42 193.448L10.42 188.408ZM1.06 173.071L2.54 173.071L2.54 176.871L15 176.871L15 178.691L2.54 178.691L2.54 182.511L1.06 182.511L1.06 173.071ZM1.06 168.051L9.88 168.051C11.12 168.051 12.04 167.751 12.64 167.151C13.24 166.538 13.54 165.691 13.54 164.611C13.54 163.544 13.24 162.711 12.64 162.111C12.04 161.498 11.12 161.191 9.88 161.191L1.06 161.191L1.06 159.371L9.86 159.371C11.02 159.371 12 159.604 12.8 160.071C13.5867 160.538 14.1733 161.171 14.56 161.971C14.9467 162.758 15.14 163.644 15.14 164.631C15.14 165.618 14.9467 166.511 14.56 167.311C14.1733 168.098 13.5867 168.724 12.8 169.191C12 169.644 11.02 169.871 9.86 169.871L1.06 169.871L1.06 168.051ZM15 147.995L9.3 151.315L9.3 153.515L15 153.515L15 155.335L1.06 155.335L1.06 150.835C1.06 149.782 1.24 148.895 1.6 148.175C1.96 147.442 2.44666 146.895 3.06 146.535C3.67333 146.175 4.37333 145.995 5.16 145.995C6.12 145.995 6.96666 146.275 7.7 146.835C8.43333 147.382 8.92 148.208 9.16 149.315L15 145.815L15 147.995ZM7.84 153.515L7.84 150.835C7.84 149.848 7.6 149.108 7.12 148.615C6.62666 148.122 5.97333 147.875 5.16 147.875C4.33333 147.875 3.69333 148.122 3.24 148.615C2.78666 149.095 2.56 149.835 2.56 150.835L2.56 153.515L7.84 153.515ZM2.54 140.347L7.2 140.347L7.2 135.267L8.7 135.267L8.7 140.347L13.5 140.347L13.5 134.667L15 134.667L15 142.167L1.04 142.167L1.04 134.667L2.54 134.667L2.54 140.347ZM1.06 126.573C1.06 125.053 1.34666 123.74 1.91999 122.633C2.47999 121.513 3.28666 120.66 4.33999 120.073C5.39333 119.473 6.63333 119.173 8.06 119.173C9.48666 119.173 10.7267 119.473 11.78 120.073C12.82 120.66 13.62 121.513 14.18 122.633C14.7267 123.74 15 125.053 15 126.573L15 130.913L1.06 130.913L1.06 126.573ZM13.5 126.573C13.5 124.773 13.0267 123.4 12.08 122.453C11.12 121.506 9.78 121.033 8.06 121.033C6.32666 121.033 4.97333 121.513 4 122.473C3.02666 123.42 2.54 124.786 2.54 126.573L2.54 129.093L13.5 129.093L13.5 126.573ZM5.13999 100.12C6.29999 100.12 7.26666 100.52 8.03999 101.32C8.79999 102.107 9.17999 103.314 9.17999 104.94L9.17999 107.62L15 107.62L15 109.44L1.05999 109.44L1.05999 104.94C1.05999 103.367 1.43999 102.174 2.19999 101.36C2.95999 100.534 3.93999 100.12 5.13999 100.12ZM7.67999 104.94C7.67999 103.927 7.45999 103.18 7.01999 102.7C6.57999 102.22 5.95333 101.98 5.13999 101.98C3.41999 101.98 2.55999 102.967 2.55999 104.94L2.55999 107.62L7.67999 107.62L7.67999 104.94ZM15 89.5184L9.29999 92.8384L9.29999 95.0384L15 95.0384L15 96.8584L1.05999 96.8584L1.05999 92.3584C1.05999 91.3051 1.23999 90.4184 1.59999 89.6984C1.95999 88.9651 2.44666 88.4184 3.05999 88.0584C3.67333 87.6984 4.37333 87.5184 5.15999 87.5184C6.11999 87.5184 6.96666 87.7984 7.69999 88.3584C8.43333 88.9051 8.91999 89.7318 9.15999 90.8384L15 87.3384L15 89.5184ZM7.83999 95.0384L7.83999 92.3584C7.83999 91.3718 7.59999 90.6318 7.11999 90.1384C6.62666 89.6451 5.97333 89.3984 5.15999 89.3984C4.33333 89.3984 3.69333 89.6451 3.23999 90.1384C2.78666 90.6184 2.55999 91.3584 2.55999 92.3584L2.55999 95.0384L7.83999 95.0384ZM15.14 77.3705C15.14 78.6638 14.84 79.8438 14.24 80.9105C13.6267 81.9771 12.78 82.8238 11.7 83.4505C10.6067 84.0638 9.37999 84.3705 8.01999 84.3705C6.65999 84.3705 5.43999 84.0638 4.35999 83.4505C3.26666 82.8238 2.41999 81.9771 1.81999 80.9105C1.20666 79.8438 0.899993 78.6638 0.899993 77.3705C0.899993 76.0638 1.20666 74.8771 1.81999 73.8105C2.41999 72.7438 3.25999 71.9038 4.33999 71.2905C5.41999 70.6771 6.64666 70.3705 8.01999 70.3705C9.39333 70.3705 10.62 70.6771 11.7 71.2905C12.78 71.9038 13.6267 72.7438 14.24 73.8105C14.84 74.8771 15.14 76.0638 15.14 77.3705ZM13.56 77.3705C13.56 76.3971 13.3333 75.5238 12.88 74.7505C12.4267 73.9638 11.78 73.3505 10.94 72.9105C10.1 72.4571 9.12666 72.2305 8.01999 72.2305C6.89999 72.2305 5.92666 72.4571 5.09999 72.9105C4.25999 73.3505 3.61333 73.9571 3.15999 74.7305C2.70666 75.5038 2.47999 76.3838 2.47999 77.3705C2.47999 78.3571 2.70666 79.2371 3.15999 80.0105C3.61333 80.7838 4.25999 81.3971 5.09999 81.8505C5.92666 82.2905 6.89999 82.5105 8.01999 82.5105C9.12666 82.5105 10.1 82.2905 10.94 81.8505C11.78 81.3971 12.4267 80.7838 12.88 80.0105C13.3333 79.2238 13.56 78.3438 13.56 77.3705ZM1.05999 62.6278C1.05999 61.1078 1.34666 59.7945 1.91999 58.6878C2.47999 57.5678 3.28666 56.7145 4.33999 56.1278C5.39333 55.5278 6.63333 55.2278 8.05999 55.2278C9.48666 55.2278 10.7267 55.5278 11.78 56.1278C12.82 56.7145 13.62 57.5678 14.18 58.6878C14.7267 59.7945 15 61.1078 15 62.6278L15 66.9678L1.05999 66.9678L1.05999 62.6278ZM13.5 62.6278C13.5 60.8278 13.0267 59.4545 12.08 58.5078C11.12 57.5611 9.77999 57.0878 8.05999 57.0878C6.32666 57.0878 4.97333 57.5678 3.99999 58.5278C3.02666 59.4745 2.53999 60.8411 2.53999 62.6278L2.53999 65.1478L13.5 65.1478L13.5 62.6278ZM1.05999 50.0472L9.87999 50.0472C11.12 50.0472 12.04 49.7472 12.64 49.1472C13.24 48.5339 13.54 47.6872 13.54 46.6072C13.54 45.5405 13.24 44.7072 12.64 44.1072C12.04 43.4939 11.12 43.1872 9.87999 43.1872L1.05999 43.1872L1.05999 41.3672L9.85999 41.3672C11.02 41.3672 12 41.6005 12.8 42.0672C13.5867 42.5339 14.1733 43.1672 14.56 43.9672C14.9467 44.7539 15.14 45.6405 15.14 46.6272C15.14 47.6139 14.9467 48.5072 14.56 49.3072C14.1733 50.0939 13.5867 50.7205 12.8 51.1872C12 51.6405 11.02 51.8672 9.85999 51.8672L1.05999 51.8672L1.05999 50.0472ZM8.01999 38.0111C6.65999 38.0111 5.43999 37.7044 4.35999 37.0911C3.26666 36.4778 2.41332 35.6444 1.79999 34.5911C1.18666 33.5244 0.879991 32.3444 0.879991 31.0511C0.879991 29.5311 1.24666 28.2044 1.97999 27.0711C2.71332 25.9378 3.75332 25.1111 5.09999 24.5911L5.09999 26.7711C4.25999 27.1578 3.61332 27.7178 3.15999 28.4511C2.70666 29.1711 2.47999 30.0378 2.47999 31.0511C2.47999 32.0244 2.70666 32.8978 3.15999 33.6711C3.61332 34.4444 4.25999 35.0511 5.09999 35.4911C5.92666 35.9311 6.89999 36.1511 8.01999 36.1511C9.12666 36.1511 10.1 35.9311 10.94 35.4911C11.7667 35.0511 12.4067 34.4444 12.86 33.6711C13.3133 32.8978 13.54 32.0244 13.54 31.0511C13.54 30.0378 13.32 29.1711 12.88 28.4511C12.4267 27.7178 11.78 27.1578 10.94 26.7711L10.94 24.5911C12.2733 25.1111 13.3067 25.9378 14.04 27.0711C14.76 28.2044 15.12 29.5311 15.12 31.0511C15.12 32.3444 14.82 33.5244 14.22 34.5911C13.6067 35.6444 12.76 36.4778 11.68 37.0911C10.6 37.7044 9.37999 38.0111 8.01999 38.0111ZM1.05999 12.3019L2.53999 12.3019L2.53999 16.1019L15 16.1019L15 17.9219L2.53999 17.9219L2.53999 21.7419L1.05999 21.7419L1.05999 12.3019ZM15.14 4.64156C15.14 5.56156 14.98 6.38823 14.66 7.12156C14.3267 7.84156 13.8733 8.40823 13.3 8.82156C12.7133 9.23489 12.04 9.44823 11.28 9.46156L11.28 7.52156C11.9333 7.45489 12.4867 7.18823 12.94 6.72156C13.38 6.24156 13.6 5.54823 13.6 4.64156C13.6 3.77489 13.3867 3.09489 12.96 2.60156C12.52 2.09489 11.96 1.84156 11.28 1.84156C10.7467 1.84156 10.3133 1.98823 9.97999 2.28156C9.64666 2.57489 9.39332 2.94156 9.21999 3.38156C9.04666 3.82156 8.85999 4.41489 8.65999 5.16156C8.41999 6.08156 8.17999 6.82156 7.93999 7.38156C7.69999 7.92823 7.32666 8.40156 6.81999 8.80156C6.29999 9.18823 5.60666 9.38156 4.73999 9.38156C3.97999 9.38156 3.30666 9.18823 2.71999 8.80156C2.13332 8.4149 1.67999 7.8749 1.35999 7.18156C1.03999 6.4749 0.87999 5.66823 0.87999 4.76156C0.87999 3.4549 1.20666 2.38823 1.85999 1.56156C2.51332 0.721561 3.37999 0.248228 4.45999 0.141562L4.45999 2.14156C3.92666 2.20823 3.45999 2.48823 3.05999 2.98156C2.64666 3.4749 2.43999 4.12823 2.43999 4.94156C2.43999 5.70156 2.63999 6.32156 3.03999 6.80156C3.42666 7.28156 3.97332 7.52156 4.67999 7.52156C5.18666 7.52156 5.59999 7.38156 5.91999 7.10156C6.23999 6.80823 6.48666 6.45489 6.65999 6.04156C6.81999 5.61489 7.00666 5.02156 7.21999 4.26156C7.47332 3.34156 7.72666 2.60156 7.97999 2.04156C8.21999 1.48156 8.59999 1.00156 9.11999 0.601562C9.62666 0.201561 10.32 0.00156104 11.2 0.001561C11.88 0.00156097 12.52 0.181561 13.12 0.541561C13.72 0.901561 14.2067 1.43489 14.58 2.14156C14.9533 2.84823 15.14 3.68156 15.14 4.64156Z" fill="#DBDBDB"/>
</svg>
